<mxfile host="app.diagrams.net" modified="2020-11-21T08:53:14.171Z" agent="5.0 (Windows NT 10.0; Win64; x64) AppleWebKit/537.36 (KHTML, like Gecko) Chrome/86.0.4240.198 Safari/537.36" etag="I-v-32f9fJMuIBsoDaW-" version="13.10.0" type="github">
  <diagram id="pJOe1LWRXH0g6gbi8GDk" name="第 1 页">
    <mxGraphModel dx="899" dy="451" grid="1" gridSize="10" guides="1" tooltips="1" connect="1" arrows="1" fold="1" page="1" pageScale="1" pageWidth="827" pageHeight="1169" math="0" shadow="0">
      <root>
        <mxCell id="0" />
        <mxCell id="1" parent="0" />
        <mxCell id="AA935_Tu2DBWLCYgcPEK-11" value="用户中小" style="ellipse;whiteSpace=wrap;html=1;align=center;newEdgeStyle={&quot;edgeStyle&quot;:&quot;entityRelationEdgeStyle&quot;,&quot;startArrow&quot;:&quot;none&quot;,&quot;endArrow&quot;:&quot;none&quot;,&quot;segment&quot;:10,&quot;curved&quot;:1};treeFolding=1;treeMoving=1;fillColor=#f8cecc;strokeColor=#b85450;" vertex="1" parent="1">
          <mxGeometry x="230" y="110" width="100" height="50" as="geometry" />
        </mxCell>
        <mxCell id="AA935_Tu2DBWLCYgcPEK-12" value="Sub Topic" style="whiteSpace=wrap;html=1;rounded=1;arcSize=50;align=center;verticalAlign=middle;strokeWidth=1;autosize=1;spacing=4;treeFolding=1;treeMoving=1;newEdgeStyle={&quot;edgeStyle&quot;:&quot;entityRelationEdgeStyle&quot;,&quot;startArrow&quot;:&quot;none&quot;,&quot;endArrow&quot;:&quot;none&quot;,&quot;segment&quot;:10,&quot;curved&quot;:1};fillColor=#d5e8d4;strokeColor=#82b366;" vertex="1" parent="1">
          <mxGeometry x="416" y="90" width="72" height="26" as="geometry" />
        </mxCell>
        <mxCell id="AA935_Tu2DBWLCYgcPEK-13" value="" style="edgeStyle=entityRelationEdgeStyle;startArrow=none;endArrow=none;segment=10;curved=1;exitX=1;exitY=0.5;exitDx=0;exitDy=0;" edge="1" target="AA935_Tu2DBWLCYgcPEK-12" parent="1" source="AA935_Tu2DBWLCYgcPEK-11">
          <mxGeometry relative="1" as="geometry">
            <mxPoint x="316" y="157" as="sourcePoint" />
          </mxGeometry>
        </mxCell>
        <mxCell id="AA935_Tu2DBWLCYgcPEK-14" value="Sub Topic" style="whiteSpace=wrap;html=1;rounded=1;arcSize=50;align=center;verticalAlign=middle;strokeWidth=1;autosize=1;spacing=4;treeFolding=1;treeMoving=1;newEdgeStyle={&quot;edgeStyle&quot;:&quot;entityRelationEdgeStyle&quot;,&quot;startArrow&quot;:&quot;none&quot;,&quot;endArrow&quot;:&quot;none&quot;,&quot;segment&quot;:10,&quot;curved&quot;:1};fillColor=#fff2cc;strokeColor=#d6b656;" vertex="1" parent="1">
          <mxGeometry x="556" y="80" width="72" height="26" as="geometry" />
        </mxCell>
        <mxCell id="AA935_Tu2DBWLCYgcPEK-15" value="" style="edgeStyle=entityRelationEdgeStyle;startArrow=none;endArrow=none;segment=10;curved=1;exitX=1;exitY=0.5;exitDx=0;exitDy=0;" edge="1" target="AA935_Tu2DBWLCYgcPEK-14" parent="1" source="AA935_Tu2DBWLCYgcPEK-12">
          <mxGeometry relative="1" as="geometry">
            <mxPoint x="516" y="120" as="sourcePoint" />
          </mxGeometry>
        </mxCell>
        <mxCell id="AA935_Tu2DBWLCYgcPEK-16" value="Sub Topic" style="whiteSpace=wrap;html=1;rounded=1;arcSize=50;align=center;verticalAlign=middle;strokeWidth=1;autosize=1;spacing=4;treeFolding=1;treeMoving=1;newEdgeStyle={&quot;edgeStyle&quot;:&quot;entityRelationEdgeStyle&quot;,&quot;startArrow&quot;:&quot;none&quot;,&quot;endArrow&quot;:&quot;none&quot;,&quot;segment&quot;:10,&quot;curved&quot;:1};" vertex="1" parent="1">
          <mxGeometry x="556" y="130" width="72" height="26" as="geometry" />
        </mxCell>
        <mxCell id="AA935_Tu2DBWLCYgcPEK-17" value="" style="edgeStyle=entityRelationEdgeStyle;startArrow=none;endArrow=none;segment=10;curved=1;exitX=1;exitY=0.5;exitDx=0;exitDy=0;" edge="1" target="AA935_Tu2DBWLCYgcPEK-16" parent="1" source="AA935_Tu2DBWLCYgcPEK-12">
          <mxGeometry relative="1" as="geometry">
            <mxPoint x="516" y="210" as="sourcePoint" />
          </mxGeometry>
        </mxCell>
        <mxCell id="AA935_Tu2DBWLCYgcPEK-18" value="Branch" style="whiteSpace=wrap;html=1;shape=partialRectangle;top=0;left=0;bottom=1;right=0;points=[[0,1],[1,1]];fillColor=none;align=center;verticalAlign=bottom;routingCenterY=0.5;snapToPoint=1;recursiveResize=0;autosize=1;treeFolding=1;treeMoving=1;newEdgeStyle={&quot;edgeStyle&quot;:&quot;entityRelationEdgeStyle&quot;,&quot;startArrow&quot;:&quot;none&quot;,&quot;endArrow&quot;:&quot;none&quot;,&quot;segment&quot;:10,&quot;curved&quot;:1};" vertex="1" parent="1">
          <mxGeometry x="686" y="80" width="80" height="20" as="geometry" />
        </mxCell>
        <mxCell id="AA935_Tu2DBWLCYgcPEK-19" value="" style="edgeStyle=entityRelationEdgeStyle;startArrow=none;endArrow=none;segment=10;curved=1;exitX=1;exitY=0.5;exitDx=0;exitDy=0;" edge="1" target="AA935_Tu2DBWLCYgcPEK-18" parent="1" source="AA935_Tu2DBWLCYgcPEK-14">
          <mxGeometry relative="1" as="geometry">
            <mxPoint x="646" y="110" as="sourcePoint" />
          </mxGeometry>
        </mxCell>
      </root>
    </mxGraphModel>
  </diagram>
</mxfile>
